<svg width="32" height="32" viewBox="0 0 32 32" fill="none" xmlns="http://www.w3.org/2000/svg">
<path fill-rule="evenodd" clip-rule="evenodd" d="M1 5.73684C1 4.48055 1.47411 3.27572 2.31802 2.38739C3.16193 1.49906 4.30653 1 5.5 1H26.5C27.6935 1 28.8381 1.49906 29.682 2.38739C30.5259 3.27572 31 4.48055 31 5.73684V21.5263C31 22.7826 30.5259 23.9874 29.682 24.8758C28.8381 25.7641 27.6935 26.2632 26.5 26.2632H9.5005C9.17594 26.2632 8.86014 26.374 8.6005 26.5789L3.4 30.6842C3.17715 30.8601 2.91215 30.9673 2.63471 30.9936C2.35727 31.02 2.07834 30.9644 1.82918 30.8333C1.58002 30.7022 1.37048 30.5006 1.22402 30.2512C1.07757 30.0017 1 29.7143 1 29.4211V5.73684Z" fill="#91D7E3"/>
<path d="M18.1465 3.77778C18.3777 3.7775 18.6027 3.85481 18.7879 3.99816C18.9732 4.14151 19.1087 4.3432 19.1744 4.5731L19.2086 4.75083L19.4014 6.38368C19.5113 7.30655 19.8975 8.1704 20.5056 8.85351C21.1137 9.53663 21.9131 10.0046 22.7911 10.1914L23.1294 10.2492L24.7012 10.4492C24.9457 10.4799 25.1726 10.5973 25.3435 10.7814C25.5144 10.9656 25.6188 11.2052 25.6392 11.46C25.6596 11.7147 25.5946 11.969 25.4553 12.1798C25.3161 12.3906 25.111 12.5452 24.8746 12.6174L24.7033 12.6552L23.1294 12.8551C22.2399 12.9691 21.4072 13.3698 20.7488 14.0007C20.0904 14.6316 19.6393 15.4609 19.4592 16.3719L19.4035 16.7229L19.2108 18.3535C19.1811 18.6072 19.068 18.8426 18.8905 19.0199C18.713 19.1972 18.482 19.3055 18.2365 19.3267C17.9909 19.3478 17.7459 19.2805 17.5426 19.136C17.3394 18.9914 17.1904 18.7786 17.1208 18.5334L17.0844 18.3557L16.8917 16.7229C16.7817 15.7997 16.3952 14.9356 15.7867 14.2525C15.1781 13.5693 14.3783 13.1015 13.4999 12.9151L13.1615 12.8573L11.5898 12.6574C11.3452 12.6266 11.1183 12.5092 10.9475 12.3251C10.7766 12.141 10.6721 11.9013 10.6518 11.6466C10.6314 11.3918 10.6963 11.1376 10.8356 10.9267C10.9749 10.7159 11.18 10.5613 11.4163 10.4891L11.5876 10.4514L13.1615 10.2514C14.0517 10.1377 14.8851 9.73692 15.544 9.10555C16.2029 8.47418 16.6541 7.64412 16.8339 6.73247L16.8896 6.38146L17.0823 4.75083C17.1147 4.48185 17.2408 4.23444 17.4368 4.05521C17.6328 3.87599 17.8853 3.77731 18.1465 3.77778Z" fill="#DF8E1D"/>
<path d="M14.9354 15.9975C14.9354 15.703 14.8226 15.4205 14.6219 15.2122V15.21C14.4211 15.0017 14.1489 14.8848 13.865 14.8848C13.5811 14.8848 13.3088 15.0017 13.108 15.21L6.684 21.868C6.58174 21.9705 6.50018 22.0931 6.44407 22.2286C6.38795 22.3641 6.35842 22.5099 6.35718 22.6573C6.35595 22.8048 6.38304 22.9511 6.43687 23.0876C6.49071 23.2241 6.57021 23.3481 6.67073 23.4524C6.77126 23.5567 6.8908 23.6392 7.02238 23.6951C7.15396 23.7509 7.29495 23.779 7.43711 23.7777C7.57927 23.7765 7.71977 23.7458 7.85039 23.6876C7.98102 23.6294 8.09916 23.5448 8.19792 23.4387L14.6219 16.7828C14.8226 16.5745 14.9354 16.2921 14.9354 15.9975Z" fill="#4C4F69"/>
</svg>
