<svg width="32" height="32" viewBox="0 0 32 32" fill="none" xmlns="http://www.w3.org/2000/svg">
<path fill-rule="evenodd" clip-rule="evenodd" d="M2 6.76316C2 5.6325 2.4425 4.54815 3.23015 3.74865C4.0178 2.94915 5.08609 2.5 6.2 2.5H25.8C26.9139 2.5 27.9822 2.94915 28.7698 3.74865C29.5575 4.54815 30 5.6325 30 6.76316V20.9737C30 22.1043 29.5575 23.1887 28.7698 23.9882C27.9822 24.7877 26.9139 25.2368 25.8 25.2368H9.9338C9.63088 25.2368 9.33613 25.3366 9.0938 25.5211L4.24 29.2158C4.032 29.3741 3.78467 29.4706 3.52573 29.4943C3.26678 29.518 3.00645 29.468 2.7739 29.35C2.54135 29.2319 2.34578 29.0505 2.20909 28.826C2.0724 28.6015 2 28.3429 2 28.0789V6.76316Z" fill="#91D7E3"/>
<path d="M18.0034 5C18.2191 4.99975 18.4291 5.06933 18.6021 5.19834C18.775 5.32736 18.9015 5.50888 18.9628 5.71579L18.9947 5.87574L19.1746 7.34531C19.2772 8.1759 19.6376 8.95336 20.2052 9.56816C20.7728 10.183 21.5189 10.6041 22.3383 10.7723L22.6541 10.8243L24.1211 11.0042C24.3494 11.0319 24.5611 11.1376 24.7206 11.3033C24.8801 11.469 24.9776 11.6847 24.9966 11.914C25.0156 12.1432 24.955 12.3721 24.825 12.5618C24.695 12.7516 24.5036 12.8907 24.283 12.9557L24.1231 12.9897L22.6541 13.1696C21.8239 13.2722 21.0468 13.6328 20.4322 14.2006C19.8177 14.7684 19.3967 15.5148 19.2286 16.3347L19.1766 16.6506L18.9967 18.1181C18.969 18.3465 18.8635 18.5584 18.6978 18.7179C18.5321 18.8775 18.3165 18.975 18.0874 18.994C17.8582 19.013 17.6295 18.9524 17.4398 18.8224C17.2501 18.6923 17.1111 18.5008 17.0461 18.2801L17.0121 18.1201L16.8323 16.6506C16.7296 15.8197 16.3688 15.0421 15.8009 14.4272C15.2329 13.8124 14.4864 13.3914 13.6665 13.2236L13.3508 13.1716L11.8838 12.9917C11.6555 12.9639 11.4438 12.8583 11.2843 12.6926C11.1248 12.5269 11.0273 12.3112 11.0083 12.0819C10.9893 11.8526 11.0499 11.6238 11.1799 11.4341C11.3099 11.2443 11.5013 11.1052 11.7219 11.0402L11.8818 11.0062L13.3508 10.8263C14.1816 10.724 14.9594 10.3632 15.5744 9.79499C16.1893 9.22676 16.6105 8.4797 16.7783 7.65922L16.8303 7.34331L17.0102 5.87574C17.0404 5.63366 17.1581 5.411 17.341 5.24969C17.524 5.08839 17.7596 4.99958 18.0034 5Z" fill="#DF8E1D"/>
<path d="M15.0064 15.9978C15.0064 15.7327 14.9011 15.4785 14.7138 15.291V15.289C14.5264 15.1016 14.2723 14.9963 14.0073 14.9963C13.7423 14.9963 13.4882 15.1016 13.3008 15.289L7.30507 21.2812C7.20963 21.3734 7.1335 21.4837 7.08113 21.6057C7.02876 21.7277 7.00119 21.8589 7.00004 21.9916C6.99888 22.1243 7.02417 22.256 7.07441 22.3788C7.12466 22.5017 7.19886 22.6133 7.29268 22.7072C7.38651 22.8011 7.49808 22.8753 7.62089 22.9256C7.7437 22.9758 7.87529 23.0011 8.00797 23C8.14066 22.9988 8.27178 22.9712 8.3937 22.9188C8.51562 22.8664 8.62588 22.7903 8.71806 22.6948L14.7138 16.7046C14.9011 16.5171 15.0064 16.2629 15.0064 15.9978Z" fill="#4C4F69"/>
</svg>
